<?xml version="1.0" encoding="utf-8"?>
<!-- Generator: Adobe Illustrator 16.0.0, SVG Export Plug-In . SVG Version: 6.00 Build 0)  -->
<!DOCTYPE svg PUBLIC "-//W3C//DTD SVG 1.1//EN" "http://www.w3.org/Graphics/SVG/1.1/DTD/svg11.dtd">
<svg version="1.1" id="Layer_1" xmlns="http://www.w3.org/2000/svg" xmlns:xlink="http://www.w3.org/1999/xlink" x="0px" y="0px"
	 width="900px" height="800px" viewBox="0 0 900 800" enable-background="new 0 0 900 800" xml:space="preserve">
<g>
	<g>
		<path fill="#010101" d="M177.889,533.438c2.338,0,4.67,0.643,7.023,1.936c2.311,1.286,3.879,2.975,4.648,5.066
			c0.756-2.042,2.29-3.718,4.699-5.03c2.402-1.301,4.762-1.972,7.079-1.972h19.069c4.458,0,8.273,1.435,11.417,4.311
			c3.172,2.854,4.726,6.294,4.726,10.3v40.258h-9.94c0-2.784,0-6.563,0-11.283c0-4.733,0-9.934,0-15.6c0-5.681,0-9.425,0-11.276
			c0-2.246-0.82-4.112-2.423-5.595c-1.632-1.464-3.66-2.205-6.125-2.205h-14.936c-2.367,0-4.395,0.707-6.083,2.12
			c-1.724,1.412-2.557,3.186-2.557,5.327v38.512h-9.899v-38.512c0-2.177-0.819-3.964-2.452-5.35
			c-1.653-1.398-3.695-2.098-6.146-2.098h-14.872c-2.473,0-4.508,0.741-6.204,2.205c-1.632,1.482-2.465,3.349-2.465,5.595
			c0,1.852-0.028,5.596-0.092,11.276c-0.042,5.666-0.042,10.866,0.036,15.6c0.099,4.72,0.099,8.499,0.056,11.283h-9.87v-40.258
			c0-4.006,1.576-7.446,4.755-10.3c3.158-2.876,6.98-4.311,11.466-4.311H177.889z"/>
		<path fill="#010101" d="M261.957,513.959v8.91h-9.827v-8.91H261.957z M261.957,533.438v54.868h-9.827v-54.868H261.957z"/>
		<path fill="#010101" d="M287.399,522.869v10.569h25.151v8.909h-25.074v29.235c0,2.134,0.749,3.984,2.197,5.525
			c1.498,1.554,3.335,2.331,5.532,2.331h17.345v8.867h-18.744c-4.479,0-8.295-1.435-11.453-4.282
			c-3.172-2.847-4.755-6.266-4.755-10.286c0-16.299-0.028-33.256-0.078-50.869H287.399z"/>
		<path fill="#010101" d="M361.181,533.438c2.353,0,4.691,0.643,7.001,1.936c2.339,1.286,3.9,2.975,4.691,5.066
			c0.728-2.042,2.297-3.718,4.691-5.03c2.381-1.301,4.741-1.972,7.094-1.972h19.033c4.473,0,8.267,1.435,11.432,4.311
			c3.144,2.854,4.741,6.294,4.741,10.3v40.258h-9.969c0-2.784,0-6.563,0-11.283c0-4.733,0-9.934,0-15.6c0-5.681,0-9.425,0-11.276
			c0-2.246-0.792-4.112-2.417-5.595c-1.625-1.464-3.667-2.205-6.125-2.205h-14.921c-2.367,0-4.416,0.707-6.112,2.12
			c-1.696,1.412-2.558,3.186-2.558,5.327v38.512h-9.877v-38.512c0-2.177-0.827-3.964-2.466-5.35
			c-1.611-1.398-3.66-2.098-6.132-2.098h-14.879c-2.445,0-4.515,0.741-6.161,2.205c-1.661,1.482-2.487,3.349-2.487,5.595
			c0,1.852-0.035,5.596-0.099,11.276c-0.063,5.666-0.057,10.866,0.042,15.6c0.057,4.72,0.078,8.499,0.057,11.283h-9.898v-40.258
			c0-4.006,1.59-7.446,4.755-10.3c3.172-2.876,6.994-4.311,11.459-4.311H361.181z"/>
		<path fill="#010101" d="M433.175,607.771v-74.333h39.494c4.515,0,8.358,1.435,11.53,4.274c3.18,2.841,4.762,6.281,4.762,10.279
			v25.746c0,4.021-1.582,7.439-4.762,10.286c-3.172,2.848-7.016,4.282-11.53,4.282h-29.603v19.465H433.175z M471.326,579.439
			c2.204,0,4.041-0.777,5.539-2.331c1.471-1.541,2.205-3.392,2.205-5.525v-21.499c0-2.204-0.842-4.049-2.467-5.531
			c-1.625-1.464-3.702-2.205-6.202-2.205h-27.335v37.035l24.813,0.057h-2.509C466.007,579.439,467.985,579.439,471.326,579.439z"/>
		<path fill="#010101" d="M542.571,533.438v8.846h-22.431c-2.467,0-4.501,0.742-6.126,2.212c-1.64,1.482-2.473,3.341-2.473,5.588
			v38.145h-9.878v-40.236c0-3.998,1.563-7.438,4.72-10.279c3.158-2.84,6.967-4.274,11.424-4.274H542.571z"/>
		<path fill="#010101" d="M598.527,533.438c4.458,0,8.288,1.435,11.46,4.274c3.159,2.841,4.748,6.281,4.748,10.279v25.746
			c0,4.021-1.589,7.439-4.748,10.286c-3.172,2.848-7.002,4.282-11.46,4.282h-26.43c-4.458,0-8.288-1.435-11.453-4.282
			c-3.18-2.847-4.763-6.266-4.763-10.286v-25.746c0-3.998,1.583-7.438,4.763-10.279c3.165-2.84,6.995-4.274,11.453-4.274H598.527z
			 M568.219,544.644c-1.626,1.463-2.438,3.286-2.438,5.504v21.506c0,2.204,0.813,4.049,2.438,5.525
			c1.653,1.47,3.723,2.204,6.202,2.204h21.769c2.508,0,4.557-0.734,6.203-2.204c1.625-1.477,2.452-3.321,2.452-5.525v-21.506
			c0-2.218-0.827-4.041-2.452-5.504c-1.646-1.434-3.695-2.196-6.203-2.225c-6.769-0.085-14.003-0.085-21.769,0
			C571.941,542.447,569.872,543.21,568.219,544.644z"/>
		<path fill="#010101" d="M638.446,533.502l18.821,19.902l18.786-19.902h13.876L664.063,560.9l25.866,27.406h-13.876l-18.786-19.974
			l-18.821,19.974H624.57l25.795-27.406l-25.731-27.398H638.446z"/>
		<path fill="#010101" d="M711.309,533.502v38.151c0,2.12,0.729,3.957,2.198,5.505c1.483,1.504,3.335,2.281,5.524,2.281
			c13.918-0.028,23.351-0.057,28.274-0.057v-45.881h9.885v54.805v4.91c0,3.999-1.597,7.447-4.74,10.28
			c-3.187,2.854-7.03,4.274-11.545,4.274h-34.527v-8.86h33.171c2.226,0,4.069-0.764,5.539-2.316c1.47-1.569,2.218-3.42,2.218-5.547
			v-2.741h-29.617c-4.507,0-8.336-1.435-11.53-4.282c-3.157-2.847-4.748-6.266-4.748-10.286v-40.236H711.309z"/>
	</g>
	<g>
		<path fill="#010101" d="M566.805,269.286h-2.571v-0.057H520.33c-2.896-4.147-6.168-8.001-9.735-11.59
			c-15.529-15.537-37-25.17-60.725-25.17c-23.718,0-45.189,9.633-60.746,25.17c-3.215,3.232-6.175,6.698-8.846,10.389h-0.056
			c-7.715,0-13.982,6.277-13.982,13.996c0,7.718,6.267,13.985,13.982,13.985c7.715,0,13.996-6.267,13.996-13.985
			c0-2.543-0.686-4.925-1.873-6.97c2.028-2.682,4.247-5.211,6.606-7.592c13.042-13.021,31.038-21.083,50.919-21.083
			c19.875,0,37.876,8.062,50.918,21.083c4.6,4.617,8.585,9.842,11.82,15.558h3.222v0.12h41.324
			c3.137,9.548,5.023,19.663,5.497,30.126h-70.355c-1.158-9.743-5.616-18.493-12.208-25.099c-7.729-7.73-18.412-12.52-30.218-12.52
			c-11.778,0-22.488,4.79-30.218,12.52c-6.599,6.605-11.057,15.356-12.223,25.099h-70.347c1.3-29.126,13.635-55.405,32.958-74.721
			c20.426-20.429,48.651-33.076,79.83-33.076c29.137,0,55.695,11.046,75.739,29.179c-0.714,1.685-1.108,3.521-1.108,5.444
			c0,7.729,6.273,13.992,13.996,13.992c7.729,0,13.988-6.263,13.988-13.992c0-7.729-6.26-13.996-13.988-13.996
			c-0.538,0-1.075,0.028-1.591,0.088c-22.707-21.446-53.327-34.605-87.036-34.605c-35.008,0-66.716,14.198-89.657,37.145
			c-22.934,22.952-37.135,54.66-37.135,89.661c0,16.716,3.236,32.687,9.135,47.319h2.649v0.184h43.437
			c3.165,4.762,6.804,9.191,10.824,13.222c15.557,15.547,37.028,25.18,60.746,25.18c23.725,0,45.196-9.633,60.725-25.18
			c3.716-3.685,7.072-7.729,10.054-12.042c7.291-0.488,13.057-6.549,13.057-13.961c0-7.726-6.26-14-14.004-14
			c-7.701,0-13.968,6.274-13.968,14c0,2.84,0.834,5.511,2.304,7.719c-2.197,3.003-4.627,5.846-7.249,8.471
			c-13.042,13.035-31.044,21.089-50.918,21.089c-19.881,0-37.876-8.054-50.919-21.089c-5.051-5.059-9.354-10.87-12.731-17.235
			h-6.316v-0.078h-37.841c-2.479-7.924-4.098-16.239-4.755-24.806h70.737c1.724,8.267,5.85,15.653,11.608,21.422
			c7.729,7.722,18.44,12.52,30.218,12.52c11.806,0,22.489-4.798,30.218-12.52c5.743-5.769,9.891-13.155,11.601-21.422h70.743
			c-2.141,27.664-14.25,52.537-32.733,71.033c-20.418,20.447-48.657,33.072-79.829,33.072c-29.978,0-57.214-11.686-77.434-30.737
			c0.721-1.692,1.13-3.547,1.13-5.482c0-7.736-6.281-14-13.989-14c-7.736,0-13.996,6.263-13.996,14
			c0,7.726,6.26,13.985,13.996,13.985c0.53,0,1.053-0.032,1.59-0.077c22.849,22.389,54.162,36.201,88.703,36.201
			c35.022,0,66.696-14.187,89.657-37.127c22.941-22.962,37.148-54.67,37.148-89.661C576.675,300.962,573.15,284.391,566.805,269.286
			z M379.995,292.057c-5.349,0-9.666-4.337-9.666-9.668c0-5.341,4.317-9.665,9.666-9.665s9.679,4.324,9.679,9.665
			C389.674,287.719,385.344,292.057,379.995,292.057z M538.255,230.516c5.355,0,9.672,4.338,9.672,9.665
			c0,5.345-4.316,9.676-9.672,9.676c-5.334,0-9.672-4.331-9.672-9.676C528.583,234.854,532.921,230.516,538.255,230.516z
			 M520.239,343.272c5.327,0,9.657,4.324,9.657,9.666c0,5.341-4.33,9.676-9.657,9.676c-5.342,0-9.687-4.335-9.687-9.676
			C510.553,347.596,514.897,343.272,520.239,343.272z M470.26,338.771c-5.235,5.214-12.413,8.437-20.39,8.437
			c-7.962,0-15.169-3.222-20.383-8.437c-5.229-5.214-8.457-12.431-8.457-20.386c0-7.976,3.229-15.183,8.457-20.39
			c5.214-5.218,12.42-8.446,20.383-8.446c7.977,0,15.155,3.229,20.39,8.446c5.215,5.207,8.449,12.414,8.449,20.39
			C478.709,326.341,475.475,333.558,470.26,338.771z M359.337,404.379c-5.334,0-9.659-4.334-9.659-9.683
			c0-5.345,4.324-9.665,9.659-9.665c5.348,0,9.672,4.32,9.672,9.665C369.009,400.044,364.685,404.379,359.337,404.379z"/>
		<path fill="#F7941E" d="M545.511,240.181c0,4.01-3.257,7.256-7.256,7.256s-7.242-3.247-7.242-7.256
			c0-4.002,3.243-7.249,7.242-7.249S545.511,236.178,545.511,240.181z"/>
		<path fill="#F7941E" d="M387.265,282.388c0,4.013-3.257,7.246-7.27,7.246s-7.249-3.232-7.249-7.246
			c0-4.002,3.236-7.252,7.249-7.252S387.265,278.386,387.265,282.388z"/>
		<path fill="#F7941E" d="M366.812,394.484c0,4.006-3.243,7.252-7.249,7.252s-7.256-3.246-7.256-7.252
			c0-4.01,3.25-7.252,7.256-7.252S366.812,390.475,366.812,394.484z"/>
		<path fill="#F7941E" d="M527.049,352.938c0,3.995-3.242,7.256-7.241,7.256c-4.021,0-7.27-3.261-7.27-7.256
			c0-4.002,3.249-7.249,7.27-7.249C523.807,345.688,527.049,348.935,527.049,352.938z"/>
		<path fill="#F15A29" d="M449.87,301.493c-9.305,0-16.878,7.574-16.878,16.882c0,9.301,7.574,16.886,16.878,16.886
			c9.319,0,16.886-7.585,16.886-16.886C466.756,309.066,459.188,301.493,449.87,301.493z"/>
		<path fill="#F7941E" d="M449.87,292.428c-14.335,0-25.943,11.604-25.943,25.94c0,14.339,11.608,25.954,25.943,25.954
			c14.335,0,25.95-11.615,25.95-25.954C475.819,304.032,464.205,292.428,449.87,292.428z M449.87,339.457
			c-11.623,0-21.083-9.453-21.083-21.082c0-11.626,9.46-21.086,21.083-21.086s21.096,9.46,21.096,21.086
			C470.966,330.004,461.492,339.457,449.87,339.457z"/>
	</g>
</g>
</svg>
